<svg width="32" height="31" viewBox="0 0 32 31" fill="none" xmlns="http://www.w3.org/2000/svg">
<mask id="path-1-inside-1_2_134" fill="white">
<path d="M28.1538 12.5783C28.7942 15.2424 28.5415 18.043 27.4347 20.5494C26.3279 23.0559 24.4283 25.1292 22.028 26.4505C19.6277 27.7718 16.8597 28.2679 14.15 27.8623C11.4402 27.4568 8.9388 26.1722 7.03044 24.2062C5.1221 22.2401 3.91261 19.7014 3.58802 16.9808C3.26344 14.2602 3.84174 11.5083 5.23398 9.1484C6.62621 6.78856 8.7552 4.95151 11.2935 3.91988C13.8318 2.88825 16.6388 2.71919 19.2825 3.4387L18.6521 5.75524C16.5161 5.17392 14.2483 5.31051 12.1975 6.144C10.1467 6.97749 8.4266 8.4617 7.30174 10.3683C6.17691 12.2749 5.70967 14.4983 5.97192 16.6964C6.23416 18.8945 7.21136 20.9455 8.7532 22.534C10.295 24.1225 12.316 25.1604 14.5053 25.488C16.6946 25.8156 18.9309 25.4148 20.8702 24.3473C22.8095 23.2798 24.3443 21.6047 25.2385 19.5796C26.1328 17.5546 26.3369 15.2918 25.8195 13.1395L28.1538 12.5783Z"/>
</mask>
<path d="M28.1538 12.5783C28.7942 15.2424 28.5415 18.043 27.4347 20.5494C26.3279 23.0559 24.4283 25.1292 22.028 26.4505C19.6277 27.7718 16.8597 28.2679 14.15 27.8623C11.4402 27.4568 8.9388 26.1722 7.03044 24.2062C5.1221 22.2401 3.91261 19.7014 3.58802 16.9808C3.26344 14.2602 3.84174 11.5083 5.23398 9.1484C6.62621 6.78856 8.7552 4.95151 11.2935 3.91988C13.8318 2.88825 16.6388 2.71919 19.2825 3.4387L18.6521 5.75524C16.5161 5.17392 14.2483 5.31051 12.1975 6.144C10.1467 6.97749 8.4266 8.4617 7.30174 10.3683C6.17691 12.2749 5.70967 14.4983 5.97192 16.6964C6.23416 18.8945 7.21136 20.9455 8.7532 22.534C10.295 24.1225 12.316 25.1604 14.5053 25.488C16.6946 25.8156 18.9309 25.4148 20.8702 24.3473C22.8095 23.2798 24.3443 21.6047 25.2385 19.5796C26.1328 17.5546 26.3369 15.2918 25.8195 13.1395L28.1538 12.5783Z" fill="white"/>
<path d="M28.1538 12.5783L33.5555 11.2798L32.257 5.87798L26.8552 7.17665L28.1538 12.5783ZM27.4347 20.5494L22.3526 18.3052L22.3526 18.3053L27.4347 20.5494ZM14.15 27.8623L14.9724 22.368L14.9722 22.3679L14.15 27.8623ZM7.03044 24.2062L3.04395 28.0756L3.04407 28.0757L7.03044 24.2062ZM3.58802 16.9808L-1.92842 17.6389L-1.92842 17.639L3.58802 16.9808ZM5.23398 9.1484L0.449082 6.32546L0.449059 6.3255L5.23398 9.1484ZM19.2825 3.4387L24.6431 4.89748L26.1019 -0.462979L20.7414 -1.92187L19.2825 3.4387ZM18.6521 5.75524L17.1932 11.1158L22.5539 12.5748L24.0127 7.21402L18.6521 5.75524ZM7.30174 10.3683L2.51687 7.54531L2.51684 7.54537L7.30174 10.3683ZM5.97192 16.6964L11.4884 16.0383L11.4884 16.0382L5.97192 16.6964ZM8.7532 22.534L12.7397 18.6647L12.7397 18.6646L8.7532 22.534ZM25.2385 19.5796L20.1565 17.3352L20.1563 17.3355L25.2385 19.5796ZM25.8195 13.1395L24.5209 7.73785L19.1193 9.03646L20.4178 14.438L25.8195 13.1395ZM22.7521 13.8768C23.1079 15.3568 22.9675 16.9127 22.3526 18.3052L32.5168 22.7936C34.1155 19.1733 34.4805 15.128 33.5555 11.2798L22.7521 13.8768ZM22.3526 18.3053C21.7377 19.6978 20.6824 20.8496 19.3489 21.5836L24.7071 31.3174C28.1742 29.4088 30.9181 26.414 32.5168 22.7935L22.3526 18.3053ZM19.3489 21.5836C18.0153 22.3177 16.4776 22.5933 14.9724 22.368L13.3276 33.3567C17.2418 33.9426 21.2401 33.2259 24.7071 31.3174L19.3489 21.5836ZM14.9722 22.3679C13.4668 22.1426 12.0771 21.429 11.0168 20.3367L3.04407 28.0757C5.80052 30.9154 9.41363 32.771 13.3278 33.3567L14.9722 22.3679ZM11.0169 20.3368C9.95676 19.2445 9.28479 17.8341 9.10446 16.3226L-1.92842 17.639C-1.45957 21.5687 0.287448 25.2356 3.04395 28.0756L11.0169 20.3368ZM9.10446 16.3227C8.92414 14.8113 9.24541 13.2824 10.0189 11.9713L0.449059 6.3255C-1.56192 9.73419 -2.39726 13.7092 -1.92842 17.6389L9.10446 16.3227ZM10.0189 11.9713C10.7924 10.6603 11.9751 9.63972 13.3853 9.06661L9.20174 -1.22685C5.53527 0.263302 2.46006 2.91684 0.449082 6.32546L10.0189 11.9713ZM13.3853 9.06661C14.7954 8.49347 16.3549 8.39956 17.8236 8.79928L20.7414 -1.92187C16.9227 -2.96118 12.8682 -2.71697 9.20174 -1.22685L13.3853 9.06661ZM13.9219 1.97992L13.2915 4.29646L24.0127 7.21402L24.6431 4.89748L13.9219 1.97992ZM20.111 0.394657C16.8 -0.506446 13.2847 -0.294713 10.1058 0.997269L14.2892 11.2907C15.2119 10.9157 16.2322 10.8543 17.1932 11.1158L20.111 0.394657ZM10.1058 0.997269C6.9268 2.28927 4.26048 4.58995 2.51687 7.54531L12.0866 13.1913C12.5927 12.3335 13.3666 11.6657 14.2892 11.2907L10.1058 0.997269ZM2.51684 7.54537C0.773236 10.5008 0.0489704 13.9473 0.455484 17.3546L11.4884 16.0382C11.3704 15.0493 11.5806 14.049 12.0866 13.1912L2.51684 7.54537ZM0.455481 17.3545C0.861987 20.7619 2.37678 23.9411 4.76671 26.4034L12.7397 18.6646C12.0459 17.9499 11.6063 17.0271 11.4884 16.0383L0.455481 17.3545ZM4.76666 26.4033C7.15661 28.8657 10.2894 30.4746 13.6831 30.9824L15.3275 19.9936C14.3426 19.8462 13.4334 19.3793 12.7397 18.6647L4.76666 26.4033ZM13.6831 30.9824C17.0768 31.4902 20.5432 30.8689 23.5492 29.2142L18.1912 19.4804C17.3186 19.9607 16.3124 20.141 15.3275 19.9936L13.6831 30.9824ZM23.5492 29.2142C26.5554 27.5595 28.9345 24.9628 30.3207 21.8237L20.1563 17.3355C19.7541 18.2466 19.0636 19.0001 18.1912 19.4804L23.5492 29.2142ZM30.3205 21.824C31.7068 18.6849 32.0232 15.1773 31.2212 11.841L20.4178 14.438C20.6506 15.4063 20.5588 16.4243 20.1565 17.3352L30.3205 21.824ZM27.1181 18.5411L29.4524 17.9799L26.8552 7.17665L24.5209 7.73785L27.1181 18.5411Z" fill="black" fill-opacity="0.5" mask="url(#path-1-inside-1_2_134)"/>
<path d="M20.1667 8.5556V7.16666H22.9445V4.38889H24.3334V7.16666H27.1111V8.5556H24.3334V11.3333H22.9445V8.5556H20.1667Z" fill="#808080" stroke="#7A7A7A" stroke-width="0.428571"/>
<path d="M11.8445 19.5714V12.3829L12.8159 13.32H10.3588V11.5714H14.1073V19.5714H11.8445ZM18.739 19.7314C18.0457 19.7314 17.44 19.6286 16.9219 19.4229C16.4038 19.2171 15.9962 18.9276 15.699 18.5543C15.4095 18.1733 15.2647 17.7276 15.2647 17.2171C15.2647 16.7143 15.4095 16.2876 15.699 15.9371C15.9962 15.579 16.4038 15.3086 16.9219 15.1257C17.4476 14.9352 18.0533 14.84 18.739 14.84C19.4247 14.84 20.0267 14.9352 20.5447 15.1257C21.0705 15.3086 21.4781 15.579 21.7676 15.9371C22.0647 16.2876 22.2133 16.7143 22.2133 17.2171C22.2133 17.7276 22.0686 18.1733 21.779 18.5543C21.4895 18.9276 21.0819 19.2171 20.5562 19.4229C20.0381 19.6286 19.4324 19.7314 18.739 19.7314ZM18.739 18.1429C19.1047 18.1429 19.3943 18.0552 19.6076 17.88C19.8286 17.7048 19.939 17.461 19.939 17.1486C19.939 16.8438 19.8286 16.6038 19.6076 16.4286C19.3943 16.2457 19.1047 16.1543 18.739 16.1543C18.3733 16.1543 18.08 16.2457 17.859 16.4286C17.6457 16.6038 17.539 16.8438 17.539 17.1486C17.539 17.461 17.6457 17.7048 17.859 17.88C18.08 18.0552 18.3733 18.1429 18.739 18.1429ZM18.739 15.96C18.1143 15.96 17.5619 15.8724 17.0819 15.6971C16.6095 15.5219 16.2362 15.2705 15.9619 14.9429C15.6876 14.6076 15.5505 14.2076 15.5505 13.7429C15.5505 13.2629 15.6838 12.8514 15.9505 12.5086C16.2247 12.1657 16.6019 11.899 17.0819 11.7086C17.5619 11.5105 18.1143 11.4114 18.739 11.4114C19.3714 11.4114 19.9238 11.5105 20.3962 11.7086C20.8762 11.899 21.2495 12.1657 21.5162 12.5086C21.7905 12.8514 21.9276 13.2629 21.9276 13.7429C21.9276 14.2076 21.7905 14.6076 21.5162 14.9429C21.2495 15.2705 20.8762 15.5219 20.3962 15.6971C19.9162 15.8724 19.3638 15.96 18.739 15.96ZM18.739 14.68C19.0286 14.68 19.2609 14.6076 19.4362 14.4629C19.6114 14.3105 19.699 14.1048 19.699 13.8457C19.699 13.5714 19.6076 13.3619 19.4247 13.2171C19.2495 13.0724 19.0209 13 18.739 13C18.4571 13 18.2286 13.0724 18.0533 13.2171C17.8781 13.3619 17.7905 13.5714 17.7905 13.8457C17.7905 14.1048 17.8781 14.3105 18.0533 14.4629C18.2286 14.6076 18.4571 14.68 18.739 14.68Z" fill="#7A7A7A"/>
</svg>
