<svg width="60" height="60" viewBox="0 0 60 60" fill="none" xmlns="http://www.w3.org/2000/svg">
<g clip-path="url(#clip0_88_3)">
<path d="M18.0723 35.0481C17.8199 34.9589 17.5616 34.8653 17.3041 34.7678V30.6564C17.9512 30.8113 18.3369 31.1385 18.3712 31.1684C18.7244 31.4883 19.2702 31.4643 19.594 31.1133C19.9195 30.7603 19.8972 30.2102 19.5443 29.8847C19.4948 29.8391 18.6642 29.0906 17.3041 28.8866V28.047C17.3041 27.5668 16.9148 27.1775 16.4347 27.1775C15.9546 27.1775 15.5653 27.5668 15.5653 28.047V28.9534C15.4363 28.9818 15.3054 29.0145 15.1715 29.0549C13.9278 29.4295 12.9985 30.4939 12.7462 31.8327C12.5163 33.0533 12.9072 34.2303 13.7668 34.9045C14.2222 35.2617 14.789 35.5889 15.5654 35.9345V41.1476C14.8938 41.0981 14.4286 40.9342 13.6663 40.4354C13.2644 40.1725 12.7255 40.2852 12.4628 40.687C12.1999 41.0889 12.3125 41.6277 12.7144 41.8905C13.8258 42.6176 14.5851 42.8344 15.5654 42.8896V43.8298C15.5654 44.3099 15.9547 44.6992 16.4348 44.6992C16.9149 44.6992 17.3042 44.3099 17.3042 43.8298V42.8204C19.2548 42.4377 20.3942 40.8293 20.6468 39.3268C20.9713 37.3952 19.9609 35.7157 18.0723 35.0481ZM14.8397 33.5364C14.493 33.2644 14.3455 32.735 14.4548 32.1547C14.5528 31.6348 14.896 31.01 15.5652 30.7574V34.0001C15.2921 33.852 15.0452 33.6975 14.8397 33.5364ZM18.9317 39.0387C18.7979 39.8346 18.2436 40.6782 17.304 41.0144V36.62C17.3667 36.6425 17.4281 36.6648 17.4927 36.6877C19.0993 37.2554 19.0004 38.6306 18.9317 39.0387Z" fill="#82191C"/>
<path d="M59.9521 33.9293C59.8025 33.2498 59.3236 32.7011 58.6706 32.4611L56.1821 31.5464C55.7317 31.3808 55.2319 31.6118 55.0662 32.0625C54.9006 32.5132 55.1316 33.0129 55.5824 33.1785L58.0709 34.0931C58.2004 34.1407 58.2411 34.245 58.2538 34.3029C58.2666 34.3608 58.2734 34.4725 58.1756 34.5701L35.9622 56.7837C35.8643 56.8815 35.7525 56.8745 35.6948 56.8618C35.637 56.8491 35.5328 56.8084 35.4852 56.6787L32.3634 48.185C32.1577 47.6254 31.7187 47.1865 31.1591 46.9808L22.6656 43.8592C22.536 43.8115 22.4953 43.7073 22.4825 43.6494C22.4698 43.5915 22.463 43.4798 22.5606 43.3822L44.7743 21.1686C44.872 21.0709 44.9835 21.0778 45.0415 21.0905C45.0994 21.1032 45.2036 21.1439 45.2511 21.2735L48.3728 29.767C48.5784 30.3268 49.0175 30.7657 49.5772 30.9714L51.7375 31.7653C52.1882 31.9311 52.6879 31.6999 52.8534 31.2492C53.019 30.7985 52.788 30.2988 52.3372 30.1332L50.1769 29.3392C50.0971 29.3099 50.0344 29.2472 50.0051 29.1673L46.8834 20.6737C46.6434 20.0208 46.0946 19.5418 45.4153 19.3923C44.7362 19.2427 44.0368 19.4473 43.5448 19.9391L42.7038 20.78V12.1543C42.7038 11.0358 41.7938 10.1257 40.6752 10.1257H31.82C32.6302 8.5507 32.377 6.56578 31.0591 5.24801C29.9309 4.11973 28.2947 3.74906 26.8288 4.21781C26.2627 2.57555 24.7027 1.39195 22.8705 1.39195C21.0386 1.39195 19.4787 2.57531 18.9124 4.21734C17.4466 3.74777 15.8121 4.11773 14.6821 5.24789C13.8913 6.03855 13.4558 7.08984 13.4558 8.20816C13.4558 8.88644 13.6171 9.53977 13.9196 10.1256H13.1903C12.7102 10.1256 12.3209 10.5149 12.3209 10.995C12.3209 11.4751 12.7102 11.8644 13.1903 11.8644H19.386V20.0932C18.4241 19.9181 17.4449 19.8275 16.4604 19.8275C14.6482 19.8275 12.9429 20.11 11.3109 20.6535L4.77633 20.6537V12.1542C4.77633 11.9944 4.90629 11.8644 5.06613 11.8644H9.03C9.51012 11.8644 9.89941 11.4751 9.89941 10.995C9.89941 10.5149 9.51012 10.1256 9.03 10.1256H5.0659C3.94734 10.1256 3.03727 11.0357 3.03727 12.1542V26.7539C3.03727 26.7592 3.03797 26.7643 3.03809 26.7697C1.12559 29.4587 0 32.7443 0 36.2878C0 39.8234 1.10883 43.1953 3.2066 46.0392C3.37711 46.2703 3.6402 46.3925 3.90691 46.3925C4.08621 46.3925 4.26703 46.3373 4.4223 46.2227C4.80879 45.9377 4.89094 45.3934 4.60582 45.0069C2.73012 42.4642 1.73871 39.4491 1.73871 36.2877C1.73871 28.1704 8.3427 21.5665 16.46 21.5665C23.2639 21.5665 29.1129 26.1504 30.7475 32.7361L29.2757 34.208C28.8354 31.4745 27.5325 28.9569 25.512 26.9893C23.0721 24.6137 19.8574 23.3053 16.46 23.3053C9.30152 23.3053 3.47754 29.1292 3.47754 36.2877C3.47754 43.4462 9.30141 49.2702 16.46 49.2702C19.4146 49.2702 22.2763 48.259 24.5755 46.4137L26.439 47.0986C23.73 49.5969 20.1605 51.009 16.46 51.009C13.1014 51.009 9.81398 49.8431 7.20328 47.7263C6.83039 47.4238 6.28289 47.481 5.98043 47.854C5.67797 48.227 5.73516 48.7744 6.10816 49.077C9.02754 51.4443 12.7039 52.748 16.46 52.748C20.892 52.748 25.1554 50.9375 28.2482 47.7635L30.5592 48.6129C30.6391 48.6423 30.7018 48.705 30.7311 48.7849L33.8528 57.2784C34.0928 57.9314 34.6416 58.4104 35.3208 58.5599C35.4673 58.5921 35.6147 58.6079 35.7607 58.6079C36.292 58.6079 36.8054 58.399 37.1914 58.0131L59.4052 35.7996C59.897 35.3078 60.1015 34.6086 59.9521 33.9293ZM4.77609 24.7059V22.3928H7.64555C6.60387 23.0559 5.64164 23.8328 4.77609 24.7059ZM40.9649 12.1543V20.6538H26.3551V11.8645H40.6751C40.8349 11.8645 40.9649 11.9946 40.9649 12.1543ZM29.8296 6.47754C30.7839 7.43191 30.7839 8.98476 29.8297 9.93891C29.7916 9.97711 29.7177 10.0404 29.5894 10.1257H25.3534C26.6154 7.75184 26.9426 6.59027 27.0271 6.00668C27.9585 5.55129 29.0837 5.73164 29.8296 6.47754ZM22.8704 3.13078C24.2201 3.13078 25.3181 4.22883 25.3181 5.57836C25.3181 5.82961 25.1752 6.89508 23.3729 10.1256H22.368C20.5662 6.8959 20.4229 5.83008 20.4229 5.57836C20.4229 4.22883 21.5208 3.13078 22.8704 3.13078ZM15.9115 9.93902C15.4492 9.47672 15.1945 8.86207 15.1945 8.20828C15.1945 7.55449 15.4492 6.93984 15.9115 6.47754C16.6587 5.73035 17.7823 5.55105 18.7139 6.00715C18.7985 6.59098 19.1255 7.75195 20.3875 10.1257H16.1517C16.0234 10.0405 15.9497 9.97723 15.9115 9.93902ZM21.1246 11.8645H24.6163V20.6538H21.6059C21.602 20.6538 21.5984 20.6543 21.5945 20.6544C21.4386 20.6031 21.2818 20.5548 21.1246 20.5082V11.8645ZM26.7477 23.4469C26.2747 23.0673 25.7817 22.7159 25.2723 22.3928H40.965V22.5189L37.5994 25.8845H29.2035C28.4753 24.9923 27.6529 24.1734 26.7477 23.4469ZM30.4452 27.6233H35.8604L32.1552 31.3286C31.7419 30.0273 31.1653 28.7818 30.4452 27.6233ZM16.4602 47.5315C10.2604 47.5315 5.2166 42.4876 5.2166 36.2879C5.2166 30.0882 10.2605 25.0444 16.4602 25.0444C22.4286 25.0444 27.4308 29.85 27.6921 35.7919L21.3312 42.1528C20.8393 42.6447 20.6348 43.3439 20.7844 44.0232C20.9339 44.7026 21.413 45.2514 22.0658 45.4914L22.6139 45.6928C20.7932 46.8864 18.6561 47.5315 16.4602 47.5315Z" fill="#82191C"/>
<path d="M42.6306 46.3008C42.74 46.3008 42.8516 46.2799 42.9592 46.2358C43.4037 46.0542 43.6167 45.5466 43.4349 45.1021L38.4289 32.8555C38.2474 32.4111 37.7399 32.1977 37.2951 32.3797C36.8507 32.5614 36.6376 33.069 36.8194 33.5135L41.8254 45.7601C41.9631 46.0969 42.2878 46.3008 42.6306 46.3008Z" fill="#82191C"/>
<path d="M32.294 36.481C31.6849 37.0902 31.387 37.9267 31.4552 38.8364C31.5198 39.697 31.9098 40.5255 32.5532 41.169C33.1968 41.8126 34.0252 42.2026 34.886 42.2671C34.9713 42.2735 35.056 42.2767 35.1399 42.2767C35.9506 42.2767 36.6893 41.9802 37.2413 41.4282C37.8505 40.8191 38.1484 39.9826 38.0802 39.0729C38.0156 38.2121 37.6256 37.3837 36.9821 36.7401C36.3385 36.0966 35.5101 35.7066 34.6494 35.6421C33.7389 35.5735 32.903 35.8719 32.294 36.481ZM35.7526 37.9698C36.1019 38.3192 36.3128 38.7572 36.3462 39.203C36.376 39.5996 36.2572 39.9533 36.0117 40.1988C35.7663 40.4442 35.4123 40.5626 35.0159 40.5333C34.5702 40.4999 34.1322 40.2891 33.7828 39.9396C33.4334 39.5901 33.2225 39.1522 33.1891 38.7066C33.1593 38.3099 33.2782 37.9562 33.5237 37.7107C33.7443 37.49 34.0524 37.3718 34.4008 37.3718C34.4398 37.3718 34.4795 37.3733 34.5194 37.3762C34.9652 37.4095 35.4031 37.6203 35.7526 37.9698C35.7525 37.9698 35.7525 37.9698 35.7526 37.9698Z" fill="#82191C"/>
<path d="M45.9271 43.2853C46.7379 43.2853 47.4765 42.9888 48.0285 42.4369C49.2495 41.2159 49.1332 39.1129 47.7694 37.7488C46.4056 36.3848 44.3024 36.2687 43.0813 37.4896C41.8603 38.7106 41.9766 40.8136 43.3405 42.1775C43.9841 42.8211 44.8125 43.2111 45.6732 43.2756C45.7587 43.2822 45.8433 43.2853 45.9271 43.2853ZM44.3109 38.7192C44.5412 38.4889 44.8535 38.3773 45.1894 38.3773C45.6454 38.3773 46.1447 38.5834 46.5397 38.9784C47.2257 39.6645 47.342 40.6644 46.7988 41.2075C46.5534 41.4527 46.1997 41.5716 45.8032 41.5419C45.3574 41.5085 44.9194 41.2977 44.57 40.9482C43.8841 40.2621 43.7679 39.2623 44.3109 38.7192Z" fill="#82191C"/>
</g>
<defs>
<clipPath id="clip0_88_3">
<rect width="60" height="60" fill="white"/>
</clipPath>
</defs>
</svg>
