<svg width="26" height="26" viewBox="0 0 26 26" fill="none" xmlns="http://www.w3.org/2000/svg">
<path d="M21 10.093C20.9907 10.0057 20.9729 9.91975 20.9467 9.8365V9.751C20.9039 9.65332 20.8469 9.56353 20.7778 9.485L15.4444 3.785C15.371 3.71111 15.287 3.65018 15.1956 3.6045C15.169 3.60047 15.1421 3.60047 15.1156 3.6045C15.0253 3.54915 14.9255 3.51363 14.8222 3.5H11.2222C10.515 3.5 9.8367 3.80027 9.3366 4.33475C8.83651 4.86922 8.55556 5.59413 8.55556 6.35V7.3H7.66667C6.95942 7.3 6.28115 7.60027 5.78105 8.13475C5.28095 8.66922 5 9.39413 5 10.15V19.65C5 20.4059 5.28095 21.1308 5.78105 21.6653C6.28115 22.1997 6.95942 22.5 7.66667 22.5H14.7778C15.485 22.5 16.1633 22.1997 16.6634 21.6653C17.1635 21.1308 17.4444 20.4059 17.4444 19.65V18.7H18.3333C19.0406 18.7 19.7189 18.3997 20.219 17.8653C20.719 17.3308 21 16.6059 21 15.85V10.093ZM15.6667 6.7395L17.9689 9.2H16.5556C16.3198 9.2 16.0937 9.09991 15.927 8.92175C15.7603 8.74359 15.6667 8.50196 15.6667 8.25V6.7395ZM15.6667 19.65C15.6667 19.902 15.573 20.1436 15.4063 20.3218C15.2396 20.4999 15.0135 20.6 14.7778 20.6H7.66667C7.43092 20.6 7.20483 20.4999 7.03813 20.3218C6.87143 20.1436 6.77778 19.902 6.77778 19.65V10.15C6.77778 9.89804 6.87143 9.65641 7.03813 9.47825C7.20483 9.30009 7.43092 9.2 7.66667 9.2H8.55556V15.85C8.55556 16.6059 8.83651 17.3308 9.3366 17.8653C9.8367 18.3997 10.515 18.7 11.2222 18.7H15.6667V19.65ZM19.2222 15.85C19.2222 16.102 19.1286 16.3436 18.9619 16.5218C18.7952 16.6999 18.5691 16.8 18.3333 16.8H11.2222C10.9865 16.8 10.7604 16.6999 10.5937 16.5218C10.427 16.3436 10.3333 16.102 10.3333 15.85V6.35C10.3333 6.09804 10.427 5.85641 10.5937 5.67825C10.7604 5.50009 10.9865 5.4 11.2222 5.4H13.8889V8.25C13.8889 9.00587 14.1698 9.73078 14.6699 10.2653C15.17 10.7997 15.8483 11.1 16.5556 11.1H19.2222V15.85Z" fill="#4B5357"/>
</svg>
