<svg width="71" height="35" viewBox="0 0 71 35" fill="none" xmlns="http://www.w3.org/2000/svg">
<g clip-path="url(#clip0_2_141)">
<mask id="mask0_2_141" style="mask-type:luminance" maskUnits="userSpaceOnUse" x="0" y="0" width="71" height="35">
<path d="M70.5 0H0.5V35H70.5V0Z" fill="white"/>
</mask>
<g mask="url(#mask0_2_141)">
<path fill-rule="evenodd" clip-rule="evenodd" d="M31.2429 14.3445C33.0457 14.5048 33.1364 16.3488 33.1364 16.3488H34.6069C34.4759 14.3445 33.0356 13.0115 30.9709 13.0115C28.9363 13.0115 27.3146 14.174 26.5794 15.7074C25.9349 17.0506 25.27 19.4257 26.7304 21.5303C27.8686 23.1737 30.7392 23.2138 32.3004 22.2817C33.8716 21.3397 34.2342 19.4856 34.2342 19.4856L32.5823 19.5559C32.5823 19.5559 32.3709 20.2172 31.7766 20.909C30.991 21.8308 28.8053 22.0714 27.919 20.538C27.0225 19.0046 27.4052 17.2609 28.1808 15.958C28.8256 14.8555 29.9333 14.2241 31.2429 14.3445ZM52.1928 14.0335C51.1351 13.2518 50.1481 13.0512 49.272 13.0714C47.6098 13.0915 45.8171 13.9534 44.8504 15.8775C44.0345 17.511 43.8431 20.177 45.2228 21.5501C46.5927 22.923 48.8691 23.5645 50.9538 21.7706L51.0042 22.6022H51.9712L52.9786 17.8519H49.0504L48.8387 18.904L51.3972 18.8942L51.3164 19.1847C51.3164 19.1847 50.7021 21.951 48.1842 21.6101C45.6561 21.2694 45.1223 18.3328 46.4517 16.058C47.7813 13.7829 50.1883 14.2439 50.9741 14.8553C51.6072 15.348 51.6321 15.7561 51.6492 16.0427C51.6534 16.1119 51.6573 16.1738 51.6692 16.2282H53.1294L53.1298 16.2244C53.1375 16.143 53.2607 14.8133 52.1928 14.0335ZM66.8073 13.3421H68.5597L70 22.6325H68.5296L68.2577 20.6582H64.4503L63.3223 22.6725H61.308L66.8073 13.3421ZM67.452 14.9857L65.2158 19.0046H67.9857L67.452 14.9857ZM60.2002 18.1827C60.2002 18.1827 61.6506 17.872 62.0535 16.7398C62.4564 15.6071 62.1844 14.8555 61.9628 14.4747L61.9523 14.4569C61.7276 14.0696 61.2821 13.3022 58.9913 13.3022H55.1941L53.2302 22.6528H54.8115L55.6575 18.764L58.6693 18.8041C58.6693 18.8041 59.495 18.8744 59.475 20.0069C59.4547 21.1392 59.2031 22.6725 59.2031 22.6725H60.8547L61.0563 20.0972C61.0661 20.0972 61.1368 18.764 60.2002 18.1827ZM59.4145 17.6116H55.9396L56.6144 14.5648C56.6144 14.5648 58.3469 14.5449 58.9913 14.5449C59.9986 14.5449 60.8446 14.7654 60.7137 15.988C60.5726 17.2107 59.4145 17.6116 59.4145 17.6116ZM40.3178 14.5449C40.167 14.5248 40.0259 14.5148 39.8747 14.5148C38.6357 14.5148 37.095 15.1462 36.5105 16.93C36.0978 18.1326 36.1478 19.4257 36.6417 20.2974C36.9336 20.8285 37.3568 21.1493 37.9308 21.2795C38.3235 21.3597 38.6962 21.4097 39.0487 21.4097C39.8243 21.4097 40.489 21.1994 41.043 20.7687C41.5971 20.3476 42.03 19.6863 42.302 18.8844C42.6849 17.752 42.5739 16.4591 42.03 15.5972C41.6475 14.9959 41.0731 14.635 40.3178 14.5449ZM35.1608 16.489C35.9466 14.1641 37.971 13.1116 39.8747 13.1116C40.0763 13.1116 40.2776 13.1218 40.4792 13.1517C43.5106 13.5225 44.4979 16.7697 43.6317 19.3356C42.9064 21.4701 41.2849 22.823 39.0385 22.823C38.5856 22.823 38.1121 22.7628 37.6084 22.6528C35.0502 22.0614 34.2947 19.0549 35.1608 16.489Z" fill="#7A7A7A"/>
<path d="M21.2215 22.913C20.6776 22.913 19.9121 22.7023 19.338 22.1113C18.9351 21.7004 18.4719 20.9388 18.5624 19.6558C18.7337 17.1003 20.0833 15.5569 22.1783 15.5468C23.0445 15.5468 23.7295 15.7874 24.233 16.2884C25.0086 17.0602 24.9984 18.1526 24.9984 18.2028V18.2327L24.8877 19.4554H19.2977C19.2876 19.5356 19.2776 19.6257 19.2776 19.7059C19.2272 20.5279 19.4186 21.179 19.8516 21.63C20.2949 22.0912 20.8992 22.2315 21.2819 22.2214C21.9768 22.1914 23.2762 21.8007 23.7295 20.5076L24.5453 20.4675C23.9108 22.7023 22.1884 22.8827 21.3122 22.913C21.2719 22.913 21.2516 22.913 21.2215 22.913ZM19.3983 18.7441H24.233L24.2834 18.1826C24.2834 18.0822 24.2531 17.3106 23.7193 16.7795C23.3669 16.4288 22.8431 16.2483 22.1783 16.2483C21.4632 16.2483 19.8819 16.5189 19.3983 18.7441Z" fill="#7A7A7A"/>
<path d="M6.78861 27.0131L0 19.5564L9.81024 17.2516L17.596 23.8662L6.78861 27.0131ZM1.51081 20.0275L7.05049 26.101L15.9441 23.5152L9.5987 18.1333L1.51081 20.0275Z" fill="#7A7A7A"/>
<path d="M1.63144 16.3891L7.55384 19.5962L20.416 6.92825L7.62433 25.3286L1.63144 16.3891Z" fill="#7A7A7A"/>
</g>
</g>
<defs>
<clipPath id="clip0_2_141">
<rect width="70.5" height="35" fill="white"/>
</clipPath>
</defs>
</svg>
