<svg width="29" height="29" viewBox="0 0 29 29" fill="none" xmlns="http://www.w3.org/2000/svg">
<g clip-path="url(#clip0_2_126)">
<path d="M14.5 26C20.8513 26 26 20.8513 26 14.5C26 8.14873 20.8513 3 14.5 3C8.14873 3 3 8.14873 3 14.5C3 20.8513 8.14873 26 14.5 26Z" fill="white" fill-opacity="0.2"/>
<path d="M14.5 28C21.9558 28 28 21.9558 28 14.5C28 7.04416 21.9558 1 14.5 1C7.04416 1 1 7.04416 1 14.5C1 21.9558 7.04416 28 14.5 28Z" stroke="#7A7A7A" stroke-width="2"/>
<path d="M12 9H8V12M8 12V15H12M8 12H11.5" stroke="#7A7A7A" stroke-linecap="round"/>
<path d="M15 15V9L18 15L21.5 9V15M14.5 17.5H21.5" stroke="#7A7A7A" stroke-linecap="round" stroke-linejoin="round"/>
<path d="M14.8603 20.5198C14.7349 20.5198 14.6148 20.5016 14.4998 20.465C14.3849 20.4284 14.2917 20.3762 14.2203 20.3082L14.3144 20.1672C14.3788 20.2247 14.4581 20.2699 14.5521 20.303C14.6479 20.3379 14.7489 20.3553 14.8551 20.3553C15.0293 20.3553 15.1573 20.3143 15.2391 20.2325C15.321 20.1524 15.3619 20.027 15.3619 19.8563V19.5141L15.388 19.279L15.3697 19.0439V18.6286H15.5474V19.8328C15.5474 20.0697 15.489 20.2429 15.3723 20.3527C15.2574 20.4641 15.0867 20.5198 14.8603 20.5198ZM14.8264 19.9478C14.6958 19.9478 14.5782 19.9199 14.4737 19.8642C14.3692 19.8067 14.2865 19.7275 14.2256 19.6264C14.1664 19.5254 14.1367 19.4096 14.1367 19.279C14.1367 19.1484 14.1664 19.0335 14.2256 18.9342C14.2865 18.8332 14.3692 18.7548 14.4737 18.6991C14.5782 18.6434 14.6958 18.6155 14.8264 18.6155C14.9483 18.6155 15.058 18.6408 15.1555 18.6913C15.253 18.7418 15.3305 18.8167 15.388 18.9159C15.4455 19.0152 15.4742 19.1362 15.4742 19.279C15.4742 19.4218 15.4455 19.5429 15.388 19.6421C15.3305 19.7414 15.253 19.8171 15.1555 19.8694C15.058 19.9216 14.9483 19.9478 14.8264 19.9478ZM14.8447 19.7832C14.9457 19.7832 15.0354 19.7623 15.1137 19.7205C15.1921 19.677 15.2539 19.6177 15.2992 19.5429C15.3445 19.4662 15.3671 19.3783 15.3671 19.279C15.3671 19.1798 15.3445 19.0927 15.2992 19.0178C15.2539 18.9429 15.1921 18.8846 15.1137 18.8428C15.0354 18.7992 14.9457 18.7775 14.8447 18.7775C14.7454 18.7775 14.6557 18.7992 14.5756 18.8428C14.4972 18.8846 14.4354 18.9429 14.3901 19.0178C14.3466 19.0927 14.3248 19.1798 14.3248 19.279C14.3248 19.3783 14.3466 19.4662 14.3901 19.5429C14.4354 19.6177 14.4972 19.677 14.5756 19.7205C14.6557 19.7623 14.7454 19.7832 14.8447 19.7832ZM16.0635 20V18.6286H16.2411V19.0021L16.2228 18.9368C16.2611 18.8323 16.3256 18.7531 16.4161 18.6991C16.5067 18.6434 16.619 18.6155 16.7531 18.6155V18.7958C16.7461 18.7958 16.7392 18.7958 16.7322 18.7958C16.7252 18.794 16.7183 18.7931 16.7113 18.7931C16.5668 18.7931 16.4536 18.8376 16.3717 18.9264C16.2899 19.0134 16.2489 19.138 16.2489 19.2999V20H16.0635ZM17.6378 20.0131C17.5054 20.0131 17.3861 19.9835 17.2799 19.9242C17.1754 19.8633 17.0927 19.7806 17.0317 19.6761C16.9708 19.5699 16.9403 19.4488 16.9403 19.313C16.9403 19.1754 16.9708 19.0544 17.0317 18.9499C17.0927 18.8454 17.1754 18.7635 17.2799 18.7043C17.3844 18.6451 17.5037 18.6155 17.6378 18.6155C17.7736 18.6155 17.8938 18.6451 17.9983 18.7043C18.1045 18.7635 18.1872 18.8454 18.2464 18.9499C18.3074 19.0544 18.3379 19.1754 18.3379 19.313C18.3379 19.4488 18.3074 19.5699 18.2464 19.6761C18.1872 19.7806 18.1045 19.8633 17.9983 19.9242C17.892 19.9835 17.7719 20.0131 17.6378 20.0131ZM17.6378 19.8485C17.7371 19.8485 17.825 19.8267 17.9016 19.7832C17.9782 19.7379 18.0383 19.6752 18.0819 19.5951C18.1271 19.5133 18.1498 19.4192 18.1498 19.313C18.1498 19.205 18.1271 19.111 18.0819 19.0309C18.0383 18.9507 17.9782 18.8889 17.9016 18.8454C17.825 18.8001 17.7379 18.7775 17.6404 18.7775C17.5429 18.7775 17.4558 18.8001 17.3792 18.8454C17.3025 18.8889 17.2416 18.9507 17.1963 19.0309C17.151 19.111 17.1284 19.205 17.1284 19.313C17.1284 19.4192 17.151 19.5133 17.1963 19.5951C17.2416 19.6752 17.3025 19.7379 17.3792 19.7832C17.4558 19.8267 17.542 19.8485 17.6378 19.8485ZM19.2834 20.0131C19.1667 20.0131 19.0648 19.9913 18.9777 19.9478C18.8907 19.9042 18.8228 19.8389 18.774 19.7518C18.727 19.6648 18.7035 19.5559 18.7035 19.4253V18.6286H18.8889V19.4044C18.8889 19.5507 18.9246 19.6613 18.996 19.7362C19.0692 19.8093 19.1711 19.8459 19.3017 19.8459C19.3974 19.8459 19.4802 19.8267 19.5498 19.7884C19.6212 19.7484 19.6752 19.6909 19.7118 19.616C19.7501 19.5411 19.7693 19.4514 19.7693 19.3469V18.6286H19.9547V20H19.7771V19.6238L19.8058 19.6918C19.7623 19.7928 19.6944 19.872 19.6021 19.9295C19.5115 19.9852 19.4053 20.0131 19.2834 20.0131ZM21.1795 20.0131C21.0611 20.0131 20.954 19.9861 20.8582 19.9321C20.7625 19.8764 20.6858 19.7971 20.6284 19.6944C20.5726 19.5899 20.5448 19.4627 20.5448 19.313C20.5448 19.1632 20.5726 19.037 20.6284 18.9342C20.6841 18.8297 20.7598 18.7505 20.8556 18.6965C20.9514 18.6425 21.0594 18.6155 21.1795 18.6155C21.3102 18.6155 21.4268 18.6451 21.5296 18.7043C21.6341 18.7618 21.7159 18.8436 21.7751 18.9499C21.8343 19.0544 21.8639 19.1754 21.8639 19.313C21.8639 19.4523 21.8343 19.5742 21.7751 19.6787C21.7159 19.7832 21.6341 19.865 21.5296 19.9242C21.4268 19.9835 21.3102 20.0131 21.1795 20.0131ZM20.4716 20.5068V18.6286H20.6493V19.0413L20.631 19.3156L20.6571 19.5925V20.5068H20.4716ZM21.1665 19.8485C21.264 19.8485 21.3511 19.8267 21.4277 19.7832C21.5043 19.7379 21.5653 19.6752 21.6106 19.5951C21.6558 19.5133 21.6785 19.4192 21.6785 19.313C21.6785 19.2067 21.6558 19.1136 21.6106 19.0335C21.5653 18.9534 21.5043 18.8907 21.4277 18.8454C21.3511 18.8001 21.264 18.7775 21.1665 18.7775C21.069 18.7775 20.981 18.8001 20.9026 18.8454C20.826 18.8907 20.7651 18.9534 20.7198 19.0335C20.6762 19.1136 20.6545 19.2067 20.6545 19.313C20.6545 19.4192 20.6762 19.5133 20.7198 19.5951C20.7651 19.6752 20.826 19.7379 20.9026 19.7832C20.981 19.8267 21.069 19.8485 21.1665 19.8485Z" fill="#7A7A7A"/>
</g>
<defs>
<clipPath id="clip0_2_126">
<rect width="29" height="29" fill="white"/>
</clipPath>
</defs>
</svg>
