<svg width="61" height="60" viewBox="0 0 61 60" fill="none" xmlns="http://www.w3.org/2000/svg">
<g clip-path="url(#clip0_111_12)">
<path d="M45.7837 9.20266C46.2692 9.20266 46.6626 8.80849 46.6626 8.32203C46.6626 7.83557 46.2692 7.4414 45.7837 7.4414H44.7104C44.2249 7.4414 43.8315 7.83557 43.8315 8.32203C43.8315 8.80849 44.2249 9.20266 44.7104 9.20266H45.7837Z" fill="#82191C"/>
<path d="M49.8775 9.20266C50.363 9.20266 50.7564 8.80849 50.7564 8.32203C50.7564 7.83557 50.363 7.4414 49.8775 7.4414H48.8041C48.3186 7.4414 47.9252 7.83557 47.9252 8.32203C47.9252 8.80849 48.3186 9.20266 48.8041 9.20266H49.8775Z" fill="#82191C"/>
<path d="M53.971 9.20266C54.4565 9.20266 54.8499 8.80849 54.8499 8.32203C54.8499 7.83557 54.4565 7.4414 53.971 7.4414H52.8978C52.4123 7.4414 52.0189 7.83557 52.0189 8.32203C52.0189 8.80849 52.4123 9.20266 52.8978 9.20266H53.971Z" fill="#82191C"/>
<path d="M31.7618 49.6789V48.8274C31.7618 48.3409 31.3684 47.9467 30.8829 47.9467C30.3974 47.9467 30.004 48.3409 30.004 48.8274V49.6789C30.004 50.1653 30.3974 50.5595 30.8829 50.5595C31.3684 50.5595 31.7618 50.1653 31.7618 49.6789Z" fill="#82191C"/>
<path d="M58.7585 4.28571H11.5219C11.0364 4.28571 10.643 4.67988 10.643 5.16634C10.643 5.6528 11.0364 6.04697 11.5219 6.04697H58.7585C58.9607 6.04697 59.1251 6.21171 59.1251 6.41425V10.5971H19.1605C19.1427 10.5971 19.1267 10.5864 19.1197 10.57L18.7122 9.59204C18.4662 9.00201 17.9358 8.59469 17.3186 8.50217C17.2304 8.4889 17.1404 8.48209 17.0493 8.48209H9.33658C9.2454 8.48209 9.15552 8.4889 9.06728 8.50217C8.45005 8.59481 7.91966 9.00201 7.67369 9.59215L7.26622 10.57C7.25931 10.5866 7.24337 10.5971 7.22533 10.5971H2.64072V6.41425C2.64072 6.21171 2.80513 6.04697 3.0074 6.04697H8.00779C8.49329 6.04697 8.88669 5.6528 8.88669 5.16634C8.88669 4.67988 8.49329 4.28571 8.00779 4.28571H3.0074C1.83599 4.28571 0.882904 5.24055 0.882904 6.41425V42.9593C0.882904 44.133 1.83599 45.088 3.0074 45.088H25.1919C25.5174 46.1506 25.6068 47.2205 25.4555 48.2761C25.3865 48.7575 25.7201 49.2037 26.2006 49.2729C26.6808 49.3418 27.1265 49.0078 27.1954 48.5263C27.3592 47.3827 27.2988 46.2307 27.0164 45.088H34.7482C34.0943 47.7157 34.6239 50.3478 36.3279 52.9464C32.7067 52.4965 29.0588 52.4967 25.4374 52.9465C25.5638 52.7538 25.6836 52.5612 25.7965 52.369C26.0428 51.95 25.9034 51.4101 25.4851 51.1633C25.0671 50.9166 24.5283 51.0563 24.2817 51.4752C23.9216 52.0881 23.4788 52.7093 22.9638 53.3255C21.3784 53.6117 19.7957 53.9838 18.2172 54.4419C17.7509 54.5773 17.4824 55.0656 17.6175 55.5328C17.7527 56.0002 18.2407 56.2686 18.7063 56.1337C26.7795 53.79 34.974 53.7865 43.0594 56.1337C43.1411 56.1573 43.2233 56.1687 43.3044 56.1687C43.6856 56.1687 44.0367 55.9181 44.1482 55.5328C44.2832 55.0656 44.0147 54.5773 43.5485 54.4419C41.97 53.9838 40.3873 53.6117 38.802 53.3255C36.4618 50.5285 35.7286 47.8255 36.5724 45.0879H58.7584C59.9298 45.0879 60.8828 44.1329 60.8828 42.9592V35.2105C60.8828 34.724 60.4894 34.3299 60.0039 34.3299C59.5184 34.3299 59.125 34.724 59.125 35.2105V42.9592C59.125 43.1619 58.9606 43.3266 58.7584 43.3266H45.8526C45.8856 43.1737 45.9041 43.0155 45.9041 42.8527V40.4087C45.9041 39.8992 45.7311 39.4305 45.4436 39.0541C45.7311 38.6777 45.9041 38.209 45.9041 37.6995V35.2555C45.9041 34.746 45.7311 34.2773 45.4436 33.9009C45.7311 33.5246 45.9041 33.0558 45.9041 32.5463V30.1024C45.9041 28.8698 44.9033 27.8671 43.6732 27.8671H36.2482C36.0838 27.0222 35.8191 26.216 35.4645 25.4619L40.6122 22.1624L44.1948 24.7618C44.5467 25.0171 45.0321 24.9768 45.3369 24.6661L50.593 19.3108L50.6758 21.1203C50.6974 21.5924 51.0861 21.9607 51.553 21.9607C51.5665 21.9607 51.5802 21.9603 51.5939 21.9597C52.0788 21.9375 52.454 21.5256 52.4317 21.0398L52.249 17.044C52.2274 16.5738 51.8408 16.2037 51.371 16.2037H47.4743C46.9888 16.2037 46.5954 16.5979 46.5954 17.0843C46.5954 17.5708 46.9888 17.9649 47.4743 17.9649H49.4485L44.6138 22.8911L41.1585 20.3841C40.8661 20.1717 40.4734 20.1606 40.1694 20.3554L34.5797 23.9382C32.7062 21.266 29.6072 19.5423 26.1518 19.5423C20.4778 19.5423 15.8616 24.1676 15.8616 29.8527C15.8616 35.5378 20.4778 40.1632 26.1518 40.1632C27.844 40.1632 29.4872 39.7521 30.9632 38.9681C30.9836 38.9977 31.0058 39.0258 31.0275 39.0543C30.7399 39.4306 30.5671 39.8993 30.5671 40.4088V42.8528C30.5671 43.0156 30.5856 43.1738 30.6186 43.3267H3.0074C2.80513 43.3267 2.64072 43.162 2.64072 42.9593V12.3584H7.22544C7.9547 12.3584 8.60744 11.9228 8.88833 11.2484L9.29579 10.2706C9.30271 10.254 9.31865 10.2433 9.33658 10.2433H17.0494C17.0672 10.2433 17.0833 10.2542 17.0902 10.2706L17.4977 11.2486C17.7786 11.9228 18.4315 12.3584 19.1605 12.3584H59.1251V31.6897C59.1251 32.1762 59.5185 32.5704 60.004 32.5704C60.4895 32.5704 60.8829 32.1762 60.8829 31.6897V6.41425C60.8829 5.24055 59.9299 4.28571 58.7585 4.28571ZM32.3249 37.6996V35.2556C32.3249 34.9942 32.5371 34.7817 32.7979 34.7817H43.6735C43.9343 34.7817 44.1465 34.9943 44.1465 35.2556V37.6996C44.1465 37.961 43.9342 38.1736 43.6735 38.1736H32.7979C32.537 38.1736 32.3249 37.9609 32.3249 37.6996ZM44.1465 30.1024V32.5463C44.1465 32.8077 43.9342 33.0203 43.6735 33.0203H32.7979C32.537 33.0203 32.3249 32.8075 32.3249 32.5463V30.1024C32.3249 29.841 32.5371 29.6284 32.7979 29.6284H43.6735C43.9342 29.6282 44.1465 29.841 44.1465 30.1024ZM17.6194 29.8527C17.6194 25.1388 21.447 21.3036 26.1518 21.3036C30.1369 21.3036 33.5507 24.0663 34.451 27.867H32.7979C31.5679 27.867 30.5671 28.8697 30.5671 30.1023V32.5462C30.5671 33.0556 30.7401 33.5245 31.0275 33.9008C30.7399 34.2771 30.5671 34.7459 30.5671 35.2553V37.1683C29.2381 37.9758 27.7206 38.4017 26.1518 38.4017C21.447 38.4018 17.6194 34.5667 17.6194 29.8527ZM32.3249 42.8528V40.4088C32.3249 40.1474 32.5371 39.9349 32.7979 39.9349H43.6735C43.9343 39.9349 44.1465 40.1475 44.1465 40.4088V42.8528C44.1465 43.1142 43.9342 43.3267 43.6735 43.3267H32.7979C32.537 43.3267 32.3249 43.1142 32.3249 42.8528Z" fill="#82191C"/>
<path d="M28.4846 32.4266L25.882 32.4036C26.1623 31.8947 26.2635 31.4403 26.2452 30.8543H26.8542C27.3397 30.8543 27.7331 30.4601 27.7331 29.9737C27.7331 29.4872 27.3397 29.093 26.8542 29.093H25.8083C25.625 28.7865 25.3908 28.3074 25.3924 27.928C25.3924 27.2454 26.5271 27.1413 26.9901 27.4231C27.2509 27.582 27.4594 27.8064 27.5089 27.9813C27.6412 28.4492 28.1277 28.7213 28.5943 28.5882C29.0613 28.4555 29.3325 27.9687 29.2 27.5006C29.0277 26.8919 28.5551 26.3152 27.9035 25.9182C27.0363 25.3898 25.7388 25.3843 24.8185 25.9049C23.7561 26.5061 23.3346 27.6567 23.8622 29.0929H23.8269C23.3414 29.0929 22.948 29.4871 22.948 29.9736C22.948 30.46 23.3414 30.8542 23.8269 30.8542H24.491C24.5181 31.2528 24.4485 31.4618 24.0262 32.0306L23.4783 32.7209C23.2691 32.9844 23.2281 33.3444 23.3728 33.6481C23.5175 33.9519 23.8223 34.1467 24.1583 34.1496L28.4693 34.1878H28.4771C28.9589 34.1878 29.3516 33.7987 29.3559 33.3149C29.36 32.8287 28.97 32.4311 28.4846 32.4266Z" fill="#82191C"/>
<path d="M6.25675 34.297C5.48776 34.297 4.86234 34.9237 4.86234 35.6941V39.4211C4.86234 40.1915 5.48788 40.8182 6.25675 40.8182H12.9705C13.7395 40.8182 14.365 40.1914 14.365 39.4211V35.6942C14.365 34.9237 13.7394 34.2971 12.9705 34.2971H6.25675V34.297ZM12.6073 39.0571H6.62015V36.0582H12.6073V39.0571Z" fill="#82191C"/>
<path d="M48.7954 34.297C48.0264 34.297 47.4009 34.9237 47.4009 35.6941V39.4211C47.4009 40.1915 48.0265 40.8182 48.7954 40.8182H55.5091C56.2781 40.8182 56.9036 40.1914 56.9036 39.4211V35.6942C56.9036 34.9237 56.278 34.2971 55.5091 34.2971H48.7954V34.297ZM55.1457 39.0571H49.1586V36.0582H55.1457V39.0571Z" fill="#82191C"/>
</g>
<defs>
<clipPath id="clip0_111_12">
<rect width="60" height="60" fill="white" transform="translate(0.882904)"/>
</clipPath>
</defs>
</svg>
