<svg width="61" height="60" viewBox="0 0 61 60" fill="none" xmlns="http://www.w3.org/2000/svg">
<g clip-path="url(#clip0_214_69)">
<path d="M41.1672 0H20.4327C17.6103 0 15.314 2.29629 15.314 5.11875V54.8813C15.314 57.7037 17.6103 60 20.4327 60H41.1671C43.9895 60 46.2858 57.7037 46.2858 54.8813V5.11875C46.2859 2.29629 43.9896 0 41.1672 0ZM44.342 54.8813C44.342 56.6319 42.9177 58.0562 41.1671 58.0562H20.4327C18.6821 58.0562 17.2578 56.6319 17.2578 54.8813V51.7063H44.342V54.8813ZM44.342 49.7624H17.2579V10.2376H44.3421V49.7624H44.342ZM44.342 8.29371H17.2579V5.11875C17.2579 3.36809 18.6822 1.94379 20.4328 1.94379H41.1672C42.9178 1.94379 44.3421 3.36809 44.3421 5.11875V8.29371H44.342Z" fill="#82191C"/>
<path d="M33.9101 4.14691H27.6898C27.1531 4.14691 26.7178 4.58203 26.7178 5.11887C26.7178 5.65559 27.153 6.09082 27.6898 6.09082H33.9101C34.4468 6.09082 34.8821 5.6557 34.8821 5.11887C34.8821 4.58203 34.4468 4.14691 33.9101 4.14691Z" fill="#82191C"/>
<path d="M22.5063 45.6156H20.4329C19.8962 45.6156 19.4609 46.0507 19.4609 46.5875C19.4609 47.1243 19.8961 47.5595 20.4329 47.5595H22.5063C23.043 47.5595 23.4782 47.1244 23.4782 46.5875C23.4782 46.0507 23.043 45.6156 22.5063 45.6156Z" fill="#82191C"/>
<path d="M28.7266 45.6156H26.6532C26.1164 45.6156 25.6812 46.0507 25.6812 46.5875C25.6812 47.1243 26.1163 47.5595 26.6532 47.5595H28.7266C29.2633 47.5595 29.6985 47.1244 29.6985 46.5875C29.6984 46.0507 29.2633 45.6156 28.7266 45.6156Z" fill="#82191C"/>
<path d="M34.947 45.6156H32.8736C32.3368 45.6156 31.9016 46.0507 31.9016 46.5875C31.9016 47.1243 32.3367 47.5595 32.8736 47.5595H34.947C35.4837 47.5595 35.9189 47.1244 35.9189 46.5875C35.9188 46.0507 35.4837 45.6156 34.947 45.6156Z" fill="#82191C"/>
<path d="M41.1672 45.6156H39.0938C38.5571 45.6156 38.1218 46.0507 38.1218 46.5875C38.1218 47.1243 38.5569 47.5595 39.0938 47.5595H41.1672C41.7039 47.5595 42.1391 47.1244 42.1391 46.5875C42.139 46.0507 41.7039 45.6156 41.1672 45.6156Z" fill="#82191C"/>
<path d="M30.8 53.0021C29.7639 53.0021 28.9209 53.8451 28.9209 54.8812C28.9209 55.9174 29.7638 56.7604 30.8 56.7604C31.8361 56.7604 32.6791 55.9174 32.6791 54.8812C32.6791 53.8451 31.8361 53.0021 30.8 53.0021ZM30.8 54.9461C30.7643 54.9461 30.7352 54.917 30.7352 54.8812C30.7352 54.8455 30.7643 54.8164 30.8 54.8164C30.8357 54.8164 30.8648 54.8455 30.8648 54.8812C30.8648 54.917 30.8357 54.9461 30.8 54.9461Z" fill="#82191C"/>
<path d="M28.7266 34.2117H20.4329C19.8962 34.2117 19.4609 34.6468 19.4609 35.1837V41.404C19.4609 41.9407 19.8961 42.3759 20.4329 42.3759H28.7266C29.2633 42.3759 29.6986 41.9408 29.6986 41.404V35.1837C29.6984 34.6468 29.2633 34.2117 28.7266 34.2117ZM27.7546 40.4319H21.4047V36.1555H27.7546V40.4319Z" fill="#82191C"/>
<path d="M28.7266 23.8445H20.4329C19.8962 23.8445 19.4609 24.2796 19.4609 24.8164V31.0368C19.4609 31.5735 19.8961 32.0087 20.4329 32.0087H28.7266C29.2633 32.0087 29.6986 31.5736 29.6986 31.0368V24.8164C29.6984 24.2796 29.2633 23.8445 28.7266 23.8445ZM27.7546 30.0648H21.4047V25.7883H27.7546V30.0648Z" fill="#82191C"/>
<path d="M28.7266 13.4773H20.4329C19.8962 13.4773 19.4609 13.9124 19.4609 14.4492V20.6695C19.4609 21.2062 19.8961 21.6415 20.4329 21.6415H28.7266C29.2633 21.6415 29.6986 21.2064 29.6986 20.6695V14.4492C29.6984 13.9125 29.2633 13.4773 28.7266 13.4773ZM27.7546 19.6976H21.4047V15.4212H27.7546V19.6976Z" fill="#82191C"/>
<path d="M41.1673 14.514H32.8736C32.3368 14.514 31.9016 14.9491 31.9016 15.486C31.9016 16.0227 32.3367 16.4579 32.8736 16.4579H41.1673C41.704 16.4579 42.1392 16.0228 42.1392 15.486C42.1391 14.9493 41.704 14.514 41.1673 14.514Z" fill="#82191C"/>
<path d="M37.0204 18.6609H32.8734C32.3367 18.6609 31.9015 19.0961 31.9015 19.6329C31.9015 20.1696 32.3366 20.6048 32.8734 20.6048H37.0204C37.5571 20.6048 37.9923 20.1697 37.9923 19.6329C37.9923 19.0961 37.5571 18.6609 37.0204 18.6609Z" fill="#82191C"/>
<path d="M41.1673 24.8812H32.8736C32.3368 24.8812 31.9016 25.3164 31.9016 25.8532C31.9016 26.3899 32.3367 26.8252 32.8736 26.8252H41.1673C41.704 26.8252 42.1392 26.39 42.1392 25.8532C42.1391 25.3164 41.704 24.8812 41.1673 24.8812Z" fill="#82191C"/>
<path d="M37.0204 29.028H32.8734C32.3367 29.028 31.9015 29.4632 31.9015 30C31.9015 30.5367 32.3366 30.972 32.8734 30.972H37.0204C37.5571 30.972 37.9923 30.5368 37.9923 30C37.9923 29.4633 37.5571 29.028 37.0204 29.028Z" fill="#82191C"/>
<path d="M41.1673 35.2484H32.8736C32.3368 35.2484 31.9016 35.6835 31.9016 36.2203C31.9016 36.757 32.3367 37.1923 32.8736 37.1923H41.1673C41.704 37.1923 42.1392 36.7571 42.1392 36.2203C42.1391 35.6836 41.704 35.2484 41.1673 35.2484Z" fill="#82191C"/>
<path d="M37.0204 39.3953H32.8734C32.3367 39.3953 31.9015 39.8304 31.9015 40.3672C31.9015 40.9039 32.3366 41.3392 32.8734 41.3392H37.0204C37.5571 41.3392 37.9923 40.9041 37.9923 40.3672C37.9923 39.8304 37.5571 39.3953 37.0204 39.3953Z" fill="#82191C"/>
</g>
<defs>
<clipPath id="clip0_214_69">
<rect width="60" height="60" fill="white" transform="translate(0.799927)"/>
</clipPath>
</defs>
</svg>
