<svg width="62" height="60" viewBox="0 0 62 60" fill="none" xmlns="http://www.w3.org/2000/svg">
<g clip-path="url(#clip0_214_168)">
<path d="M20.4792 21.1059C20.3632 20.7524 20.0546 20.4947 19.6831 20.4414L15.8048 19.8834L14.0705 16.4038C13.9043 16.0705 13.5615 15.8595 13.1861 15.8595C12.8106 15.8595 12.4679 16.0705 12.3017 16.4038L10.5674 19.8834L6.68909 20.4414C6.31768 20.4948 6.009 20.7524 5.893 21.1059C5.77701 21.4593 5.87383 21.8473 6.14262 22.1068L8.94893 24.8152L8.28635 28.6395C8.22303 29.0058 8.375 29.376 8.67872 29.5945C8.98231 29.8129 9.38497 29.8417 9.7172 29.6688L13.1861 27.863L16.6549 29.6688C16.7991 29.7438 16.9567 29.7809 17.1136 29.7809C17.3181 29.7809 17.5216 29.7181 17.6936 29.5945C17.9973 29.376 18.1494 29.0057 18.0859 28.6395L17.4235 24.8152L20.2298 22.1068C20.4983 21.8473 20.5952 21.4594 20.4792 21.1059ZM15.6748 23.775C15.4424 23.9993 15.3363 24.3225 15.3912 24.6393L15.8036 27.0197L13.6446 25.8958C13.5009 25.821 13.3434 25.7836 13.1857 25.7836C13.0282 25.7836 12.8705 25.821 12.7267 25.8959L10.5676 27.0199L10.98 24.6394C11.0349 24.3227 10.9288 23.9995 10.6964 23.775L8.94964 22.0893L11.3636 21.742C11.6848 21.6958 11.9624 21.4959 12.1062 21.2078L13.1857 19.0421L14.2653 21.2078C14.409 21.4961 14.6865 21.6958 15.0078 21.742L17.4217 22.0893L15.6748 23.775Z" fill="#82191C"/>
<path d="M38.3936 21.1059C38.2776 20.7524 37.9691 20.4947 37.5975 20.4414L33.7193 19.8834L31.9849 16.4038C31.8188 16.0705 31.4759 15.8595 31.1005 15.8595C30.7251 15.8595 30.3823 16.0705 30.2162 16.4038L28.4818 19.8834L24.6035 20.4414C24.2321 20.4948 23.9235 20.7524 23.8075 21.1059C23.6915 21.4593 23.7883 21.8473 24.0571 22.1068L26.8634 24.8152L26.2008 28.6395C26.1375 29.0058 26.2895 29.376 26.5932 29.5945C26.8966 29.8129 27.2994 29.8417 27.6317 29.6688L31.1005 27.863L34.5693 29.6688C34.7136 29.7438 34.8711 29.7809 35.0281 29.7809C35.2326 29.7809 35.4361 29.7181 35.608 29.5945C35.9117 29.376 36.0638 29.0057 36.0004 28.6395L35.3379 24.8152L38.1442 22.1068C38.4128 21.8473 38.5095 21.4594 38.3936 21.1059ZM33.5894 23.775C33.357 23.9993 33.2509 24.3225 33.3058 24.6393L33.7182 27.0197L31.5592 25.8958C31.4155 25.821 31.258 25.7836 31.1003 25.7836C30.9427 25.7836 30.785 25.821 30.6413 25.8959L28.4822 27.0199L28.8946 24.6394C28.9495 24.3227 28.8434 23.9995 28.611 23.775L26.8642 22.0893L29.2782 21.742C29.5994 21.6958 29.8769 21.4959 30.0206 21.2078L31.1002 19.0421L32.1797 21.2078C32.3234 21.4961 32.6011 21.6958 32.9223 21.742L35.3363 22.0893L33.5894 23.775Z" fill="#82191C"/>
<path d="M56.3079 21.1059C56.1919 20.7524 55.8833 20.4947 55.5118 20.4414L51.6335 19.8834L49.8992 16.4038C49.733 16.0705 49.3901 15.8595 49.0148 15.8595C48.6395 15.8595 48.2966 16.0705 48.1304 16.4038L46.3961 19.8834L42.5178 20.4414C42.1464 20.4948 41.8377 20.7524 41.7217 21.1059C41.6057 21.4593 41.7026 21.8473 41.9714 22.1068L44.7777 24.8152L44.1151 28.6395C44.0518 29.0058 44.2037 29.376 44.5075 29.5945C44.811 29.8129 45.2136 29.8417 45.5459 29.6688L49.0148 27.863L52.4836 29.6688C52.6279 29.7438 52.7854 29.7809 52.9423 29.7809C53.147 29.7809 53.3503 29.7181 53.5223 29.5945C53.826 29.376 53.9781 29.0057 53.9147 28.6395L53.2522 24.8152L56.0585 22.1068C56.3271 21.8473 56.4239 21.4594 56.3079 21.1059ZM51.5038 23.775C51.2713 23.9993 51.1653 24.3225 51.2202 24.6393L51.6326 27.0197L49.4736 25.8958C49.3299 25.821 49.1724 25.7836 49.0147 25.7836C48.857 25.7836 48.6994 25.821 48.5557 25.8959L46.3966 27.0199L46.809 24.6394C46.8639 24.3227 46.7578 23.9995 46.5254 23.775L44.7786 22.0893L47.1926 21.742C47.5138 21.6958 47.7913 21.4959 47.9351 21.2078L49.0147 19.0421L50.0943 21.2078C50.238 21.4961 50.5155 21.6958 50.8367 21.742L53.2507 22.0893L51.5038 23.775Z" fill="#82191C"/>
<path d="M56.5765 2.90227H5.62365C2.96399 2.90227 0.800018 5.04481 0.800018 7.67814V14.6188C0.800018 15.1581 1.24162 15.5952 1.78619 15.5952C2.33076 15.5952 2.77236 15.158 2.77236 14.6188V7.67814C2.77236 6.12142 4.05148 4.85509 5.62365 4.85509H56.5765C58.1488 4.85509 59.4278 6.12153 59.4278 7.67814V41.0076H53.2482C52.7035 41.0076 52.2621 41.4448 52.2621 41.984C52.2621 42.5232 52.7037 42.9604 53.2482 42.9604H59.4278V44.7502C59.4278 46.307 58.1487 47.5733 56.5765 47.5733H38.1822H24.0179H5.62365C4.05136 47.5733 2.77236 46.3069 2.77236 44.7502V42.9604H49.9609C50.5056 42.9604 50.9471 42.5232 50.9471 41.984C50.9471 41.4448 50.5055 41.0076 49.9609 41.0076H2.77236V17.8737C2.77236 17.3344 2.33076 16.8973 1.78619 16.8973C1.24162 16.8973 0.800018 17.3344 0.800018 17.8737V44.7505C0.800018 47.3839 2.96399 49.5263 5.62365 49.5263H22.5237L20.0981 55.1449H15.3597C14.815 55.1449 14.3735 55.5821 14.3735 56.1213C14.3735 56.6605 14.8151 57.0977 15.3597 57.0977H46.8404C47.3851 57.0977 47.8265 56.6605 47.8265 56.1213C47.8265 55.5821 47.3849 55.1449 46.8404 55.1449H42.102L39.6763 49.5263H56.5764C59.2362 49.5263 61.4 47.3839 61.4 44.7505V7.67814C61.4001 5.04481 59.2362 2.90227 56.5765 2.90227ZM39.9569 55.1448H22.2432L23.9284 51.2413H38.2718L39.9569 55.1448Z" fill="#82191C"/>
<path d="M31.9196 44.4937C31.693 44.1532 31.2588 43.9899 30.86 44.0886C30.4437 44.1916 30.1361 44.563 30.1154 44.9874C30.0723 45.8703 31.1932 46.3502 31.8115 45.7107C32.1267 45.3847 32.1758 44.8697 31.9196 44.4937Z" fill="#82191C"/>
</g>
<defs>
<clipPath id="clip0_214_168">
<rect width="60.6" height="60" fill="white" transform="translate(0.800018)"/>
</clipPath>
</defs>
</svg>
