<svg width="60" height="60" viewBox="0 0 60 60" fill="none" xmlns="http://www.w3.org/2000/svg">
<g clip-path="url(#clip0_88_123)">
<path d="M24.9366 20.0111C22.1608 27.8251 26.2451 36.4099 34.0592 39.1857C41.8734 41.9615 50.458 37.8772 53.2338 30.0632C55.6618 23.2283 52.8566 15.6349 46.5683 12.0201C46.9144 11.0561 47.0903 10.0393 47.0882 9.0151C47.0998 4.04792 43.0826 0.0117642 38.1155 -5.1826e-06C35.4224 -0.00639071 32.8681 1.19459 31.1548 3.27251C31.0326 3.24246 30.9174 3.19839 30.7912 3.17235C30.2207 3.05866 29.6401 3.00257 29.0584 3.00507C24.0884 2.99668 20.0527 7.01869 20.0443 11.9886C20.0386 15.3696 21.9282 18.4683 24.9366 20.0111ZM50.745 30.8065C50.4563 31.3896 50.1241 31.9503 49.7515 32.4837C45.6278 38.3661 37.5163 39.7918 31.634 35.6683C25.7515 31.5446 24.3258 23.4331 28.4494 17.5508C30.4016 14.766 33.367 12.8564 36.71 12.2314L37.1798 12.1593C37.4732 12.1152 37.7717 12.0832 38.0722 12.0591C38.1864 12.0501 38.3006 12.0491 38.4148 12.0431C38.6001 12.0341 38.7864 12.0241 38.9727 12.0231C39.0729 12.0231 39.173 12.0231 39.2812 12.0291C39.5523 12.0331 39.8221 12.0457 40.0905 12.0671C40.2228 12.0781 40.356 12.0872 40.4912 12.1012C40.8218 12.1372 41.1503 12.1833 41.4748 12.2444C41.6 12.2675 41.7232 12.2995 41.8474 12.3266C42.0878 12.3786 42.3282 12.4367 42.5656 12.5039C42.6888 12.5379 42.812 12.574 42.9342 12.612C43.2758 12.7192 43.6154 12.8344 43.9499 12.9716C44.2564 13.0918 44.5619 13.231 44.8594 13.3723C51.299 16.5613 53.9341 24.3669 50.745 30.8065ZM38.0732 2.00342C41.9437 2.0078 45.0804 5.14447 45.0848 9.01498C45.087 9.73566 44.9762 10.4522 44.7562 11.1385L44.6931 11.1134C42.9102 10.3836 41.0014 10.011 39.0749 10.0166C38.6842 10.0166 38.2956 10.0337 37.912 10.0637H37.8639C37.8509 10.0036 37.8288 9.94751 37.8148 9.88842C37.7857 9.77022 37.7497 9.65503 37.7146 9.53784C37.6375 9.2694 37.5494 9.00596 37.4482 8.74754C37.4011 8.62634 37.355 8.50714 37.303 8.38894C37.1788 8.10848 37.0395 7.83703 36.8893 7.5726C36.8472 7.49848 36.8121 7.42135 36.7681 7.34923C36.5731 7.0297 36.3583 6.72257 36.125 6.42972C36.0429 6.32955 35.9527 6.22939 35.8666 6.12922C35.7013 5.93791 35.531 5.7536 35.3497 5.57731C35.2396 5.46913 35.1274 5.36496 35.0112 5.26279C34.8269 5.10053 34.6346 4.94928 34.4372 4.80203C34.323 4.71689 34.2129 4.62775 34.0947 4.54862C33.7988 4.34941 33.491 4.16849 33.1731 4.00672C34.4798 2.72098 36.2401 2.00129 38.0732 2.00342ZM22.0468 12.0199C22.0512 8.14943 25.1879 5.01276 29.0584 5.00837C29.5111 5.00687 29.9629 5.05144 30.4066 5.14159C30.6848 5.19293 30.9584 5.2663 31.2249 5.36095C31.5334 5.46137 31.8347 5.58282 32.1264 5.72455C32.2266 5.77163 32.3117 5.82472 32.4049 5.87881C32.5932 5.97897 32.7795 6.08515 32.9558 6.20234C33.056 6.27145 33.1561 6.34858 33.2563 6.4227C33.4105 6.53789 33.5638 6.65609 33.708 6.7833C33.8082 6.86944 33.8963 6.96059 33.9885 7.05074C34.1221 7.18433 34.2499 7.32056 34.3721 7.45941C34.4573 7.55958 34.5404 7.65974 34.6195 7.75991C34.7337 7.90815 34.8399 8.0604 34.9421 8.21967C35.0122 8.32784 35.0823 8.43502 35.1424 8.5462C35.2426 8.71548 35.3247 8.89177 35.4068 9.06907C35.4589 9.17825 35.514 9.28642 35.5591 9.39861C35.6422 9.60395 35.7093 9.8163 35.7724 10.0296C35.8005 10.1228 35.8355 10.2119 35.8596 10.3061C35.8596 10.3231 35.8646 10.3412 35.8686 10.3572C35.7484 10.3842 35.6312 10.4203 35.512 10.4493C35.3638 10.4854 35.2115 10.5225 35.0703 10.5635C34.8489 10.6246 34.6295 10.6947 34.4112 10.7639C34.274 10.8089 34.1357 10.851 33.9995 10.9001C33.7621 10.9862 33.5287 11.0824 33.2984 11.1795C33.1862 11.2266 33.073 11.2687 32.9618 11.3178C32.6202 11.471 32.2827 11.6343 31.9511 11.8126C31.5976 12.0029 31.25 12.2132 30.9184 12.4266C30.8042 12.5007 30.6951 12.5829 30.5829 12.66C30.3655 12.8092 30.1492 12.9605 29.9398 13.1197C29.8126 13.2199 29.6914 13.3201 29.5672 13.4202C29.3819 13.5715 29.1986 13.7207 29.0203 13.885C28.8951 13.9982 28.7749 14.1154 28.6537 14.2326C28.4864 14.3928 28.3232 14.5551 28.1639 14.7234C28.0463 14.849 27.9309 14.9762 27.8173 15.105C27.6661 15.2763 27.5168 15.4526 27.3736 15.6309C27.2674 15.7641 27.1612 15.8973 27.0591 16.0315C26.9188 16.2188 26.7846 16.4102 26.6524 16.6035C26.5603 16.7407 26.4661 16.8769 26.3769 17.0172C26.2447 17.2265 26.1215 17.4409 26.0003 17.6562C25.9252 17.7884 25.8471 17.9176 25.777 18.0519C25.7569 18.0909 25.7329 18.128 25.7129 18.1661C23.465 16.9357 22.0615 14.5825 22.0468 12.0199Z" fill="#82191C"/>
<path d="M35.2045 15.7552C35.2045 15.7551 35.2045 15.7551 35.2045 15.7552C34.9426 15.2679 34.3353 15.0852 33.848 15.3472C33.8477 15.3473 33.8475 15.3474 33.8472 15.3475C31.6629 16.5286 29.9404 18.4116 28.9582 20.6924C28.3626 22.0649 28.0557 23.5453 28.0567 25.0415C28.0575 25.5947 28.5066 26.0425 29.0597 26.0418C29.6119 26.041 30.0593 25.5937 30.06 25.0415C30.058 23.8183 30.3072 22.6076 30.7922 21.4847C31.5973 19.6177 33.009 18.0772 34.7988 17.1125C35.2856 16.8496 35.4673 16.242 35.2045 15.7552Z" fill="#82191C"/>
<path d="M30.4757 27.7459C30.2945 27.2232 29.7238 26.9464 29.2012 27.1276C28.6997 27.3015 28.421 27.8361 28.5655 28.3468C28.8173 29.142 29.159 29.9059 29.5842 30.6236C29.8663 31.0996 30.4809 31.2568 30.957 30.9747C31.433 30.6926 31.5901 30.0779 31.308 29.6019C30.9609 29.0169 30.6815 28.3943 30.4757 27.7459Z" fill="#82191C"/>
<path d="M39.3753 24.0508C39.3245 24.0532 39.2741 24.0593 39.2241 24.0688C39.1751 24.0554 39.1253 24.0458 39.0749 24.0398C37.9684 24.0398 37.0716 23.1429 37.0716 22.0365C37.0716 20.93 37.9684 20.0332 39.0749 20.0332C40.1813 20.0332 41.0782 20.93 41.0782 22.0365C41.0782 22.5896 41.5266 23.0381 42.0798 23.0381C42.633 23.0381 43.0815 22.5896 43.0815 22.0365C43.0746 20.2151 41.8402 18.6275 40.0765 18.1721V17.0282C40.0765 16.475 39.628 16.0266 39.0749 16.0266C38.5217 16.0266 38.0732 16.475 38.0732 17.0282V18.1721C35.9346 18.7225 34.6471 20.9025 35.1975 23.0411C35.6527 24.8098 37.2485 26.0453 39.0749 26.0431C39.1019 26.0431 39.1239 26.03 39.15 26.028C39.176 26.026 39.1971 26.0461 39.2241 26.0481C40.3274 26.1308 41.1548 27.0923 41.072 28.1955C40.9893 29.2988 40.0278 30.1262 38.9246 30.0434C37.8218 29.9608 36.9945 28.9999 37.0766 27.8971C37.13 27.3465 36.727 26.8568 36.1765 26.8033C35.6258 26.7498 35.1361 27.1529 35.0826 27.7034C35.0811 27.7186 35.08 27.7336 35.0793 27.7487C34.9329 29.6813 36.1954 31.44 38.0732 31.9196V33.0545C38.0732 33.6076 38.5217 34.0561 39.0749 34.0561C39.628 34.0561 40.0765 33.6076 40.0765 33.0545V31.9116C42.2155 31.3627 43.5046 29.1836 42.9557 27.0446C42.5289 25.3816 41.0879 24.1765 39.3753 24.0508Z" fill="#82191C"/>
<path d="M25.0518 13.0216C25.6049 13.0216 26.0534 12.5731 26.0534 12.0199C26.0534 10.3603 27.3988 9.01499 29.0584 9.01499C29.6115 9.01499 30.06 8.5665 30.06 8.01334C30.06 7.46018 29.6115 7.01169 29.0584 7.01169C26.2938 7.01494 24.0534 9.25539 24.0501 12.0199C24.0501 12.5732 24.4986 13.0216 25.0518 13.0216Z" fill="#82191C"/>
<path d="M38.0732 6.01003C39.7328 6.01003 41.0781 7.35537 41.0781 9.01498C41.0781 9.56814 41.5266 10.0166 42.0798 10.0166C42.6329 10.0166 43.0814 9.56814 43.0814 9.01498C43.0782 6.25043 40.8377 4.00998 38.0732 4.00673C37.52 4.00673 37.0715 4.45522 37.0715 5.00838C37.0715 5.56154 37.52 6.01003 38.0732 6.01003Z" fill="#82191C"/>
<path d="M59.4534 40.9676C58.3376 39.063 55.898 38.4094 53.9794 39.5012L43.4581 45.5752C43.2538 43.9147 42.0528 42.5492 40.4321 42.1346L31.0046 40.4668C29.656 40.1594 28.3567 39.6659 27.1442 39.0004C24.6435 37.6991 21.8609 37.033 19.0419 37.0612C16.2709 37.0216 13.5328 37.6642 11.0687 38.9323C10.7086 39.1101 10.3335 39.2558 9.94787 39.368C8.36564 39.8457 6.72056 40.0821 5.06783 40.0692H1.01215C0.458987 40.0692 0.010498 40.5176 0.010498 41.0708V55.0909C0.010498 55.6441 0.458987 56.0926 1.01215 56.0926H7.1092C7.66711 56.0926 8.22428 56.1348 8.77594 56.2188L33.1731 59.9539C33.8723 60.0771 34.5925 59.9513 35.2085 59.5983L57.986 46.4467C59.2321 45.7365 59.998 44.4092 59.9893 42.9749C59.9893 42.2705 59.8045 41.5784 59.4534 40.9676ZM56.9844 44.7078L34.2018 57.8625C33.9885 57.9809 33.7407 58.0217 33.5007 57.9777L9.07944 54.2385C8.42737 54.1393 7.76878 54.0895 7.1092 54.0893H2.0138V42.0695H5.06783C6.92251 42.0837 8.76868 41.8177 10.5439 41.2802C11.0504 41.1323 11.542 40.9375 12.0123 40.6982C14.1894 39.5944 16.6012 39.0338 19.0419 39.0645C21.5242 39.0343 23.9759 39.6143 26.1816 40.7533C27.5708 41.5149 29.0601 42.0773 30.6059 42.424L39.9964 44.0888C41.0653 44.3745 41.7002 45.4726 41.4145 46.5414C41.4138 46.5436 41.4133 46.5457 41.4127 46.5478C41.3681 46.7136 41.3008 46.8724 41.2124 47.0196V47.0276H41.2074C40.7391 47.7911 39.8327 48.1666 38.9617 47.9582C38.9246 47.9481 26.1966 46.0821 26.1966 46.0821C25.6519 45.9859 25.1323 46.3495 25.0361 46.8943C24.94 47.4391 25.3036 47.9587 25.8483 48.0548C25.8675 48.0582 25.8869 48.0611 25.9062 48.0633C25.9062 48.0633 39.138 50.0256 39.4695 50.0266H39.4835C40.8041 50.0262 42.0389 49.3721 42.781 48.2797L54.9771 41.2361C55.9339 40.6807 57.1599 41.0061 57.7153 41.963C57.893 42.2692 57.9864 42.617 57.986 42.9709C57.9908 43.6885 57.6078 44.3526 56.9844 44.7078Z" fill="#82191C"/>
</g>
<defs>
<clipPath id="clip0_88_123">
<rect width="60" height="60" fill="white"/>
</clipPath>
</defs>
</svg>
