<svg width="60" height="60" viewBox="0 0 60 60" fill="none" xmlns="http://www.w3.org/2000/svg">
<g clip-path="url(#clip0_88_153)">
<path d="M41.4359 0C39.5792 0 37.7439 0.274452 35.9809 0.815739C35.5169 0.958238 35.2561 1.44984 35.3986 1.9139C35.5411 2.37796 36.0331 2.638 36.4968 2.4962C37.8136 2.09191 39.1759 1.85472 40.5569 1.78335V17.6853H35.4714C35.2667 13.2344 33.5092 9.08914 30.4525 5.84752C31.2045 5.19607 32.0172 4.60674 32.8859 4.09241C33.3036 3.84514 33.4416 3.30596 33.1943 2.88843C32.9471 2.47077 32.4078 2.33284 31.9904 2.57999C30.7697 3.3028 29.6486 4.15873 28.64 5.12154C28.617 5.13959 28.5946 5.15892 28.5731 5.17967C25.6626 7.97727 23.7256 11.6674 23.097 15.6767C21.6461 15.3108 20.1245 15.116 18.5641 15.116C8.38596 15.1157 -6.10352e-05 23.3694 -6.10352e-05 33.6798C-6.10352e-05 43.9762 8.3726 52.2439 18.5641 52.2439C27.7185 52.2439 35.4871 45.5781 36.9033 36.567C38.3794 36.9376 39.899 37.1281 41.4359 37.1281C51.4087 37.1281 59.9999 29.0865 59.9999 18.5641C59.9999 8.0354 51.4006 0 41.4359 0ZM53.6839 30.0592C52.7623 29.077 51.9624 27.9897 51.3001 26.8173C51.0611 26.3946 50.5248 26.2458 50.1024 26.4844C49.6799 26.7232 49.5308 27.2593 49.7695 27.682C50.5045 28.9829 51.3949 30.1869 52.4184 31.2753C49.6779 33.6464 46.1657 35.1481 42.3145 35.3475V19.443H47.4021C47.4696 20.8871 47.701 22.3138 48.0977 23.6951C48.2318 24.1617 48.7189 24.431 49.185 24.2974C49.6515 24.1634 49.9211 23.6766 49.7873 23.2102C49.4359 21.9864 49.2281 20.7227 49.162 19.4431H58.219C58.2188 19.4484 58.2183 19.4536 58.2181 19.4589C58.0026 23.5483 56.318 27.2543 53.6839 30.0592ZM58.2192 17.6852H49.1599C49.3628 13.6951 50.9449 9.98059 53.6836 7.0686C56.3178 9.87359 58.0027 13.58 58.2182 17.6698C58.2186 17.675 58.2189 17.68 58.2192 17.6852ZM42.3148 1.78066C46.1646 1.97999 49.6759 3.48081 52.4159 5.85056C49.3611 9.0916 47.6048 13.2357 47.4001 17.6852H42.3147V1.78066H42.3148ZM33.7597 29.6429C33.8088 29.5578 33.8999 29.5052 33.998 29.5052H34.8454C35.5435 32.2267 35.5437 35.1292 34.8454 37.8545H33.998C33.9 37.8545 33.8088 37.8017 33.7597 37.7166L31.5083 33.8174C31.4593 33.7325 31.4594 33.6271 31.5084 33.5421L33.7597 29.6429ZM22.6658 18.2263L23.0892 17.493C25.8066 18.2538 28.2868 19.6912 30.3145 21.6766L29.8963 22.4008C29.8474 22.4857 29.756 22.5385 29.6579 22.5385H25.1554C25.0573 22.5385 24.9659 22.4857 24.917 22.4008L22.6658 18.5016C22.6168 18.4168 22.6168 18.3113 22.6658 18.2263ZM33.2982 22.386C32.4024 21.2186 31.4725 20.2778 30.4783 19.443H33.7111C33.6598 20.4385 33.5225 21.4221 33.2982 22.386ZM27.9894 17.6852C26.9796 17.0893 25.9122 16.5857 24.7973 16.1886C25.2709 12.8513 26.7803 9.63324 29.1851 7.06544C31.9254 9.97777 33.5088 13.6935 33.7117 17.6852H27.9894ZM14.4623 18.2262C14.5114 18.3112 14.5114 18.4168 14.4623 18.5017L12.2112 22.4009C12.1622 22.4858 12.0708 22.5386 11.9727 22.5386H7.47026C7.37218 22.5386 7.28077 22.4858 7.23179 22.4009L6.81366 21.6767C8.83197 19.7004 11.3077 18.2575 14.0391 17.493L14.4623 18.2262ZM1.75774 33.6798C1.75774 32.2685 1.94009 30.8406 2.28274 29.5052H3.13012C3.22821 29.5052 3.3195 29.558 3.3686 29.6429L5.61976 33.542C5.66886 33.6271 5.66886 33.7325 5.61988 33.8175L3.3686 37.7166C3.3195 37.8017 3.22821 37.8545 3.13012 37.8545H2.28274C1.9272 36.4673 1.75774 35.0465 1.75774 33.6798ZM14.4625 49.1334L14.0391 49.8666C11.3312 49.1087 8.84967 47.6766 6.81355 45.6829L7.23167 44.9587C7.28065 44.8737 7.37206 44.821 7.47014 44.821H11.9726C12.0707 44.821 12.1621 44.8737 12.2111 44.9587L14.4623 48.8581C14.5114 48.943 14.5114 49.0486 14.4625 49.1334ZM15.8394 50.2641L15.9848 50.0123C16.3467 49.385 16.3466 48.606 15.9846 47.9792L13.7333 44.0798C13.3712 43.4527 12.6966 43.0633 11.9727 43.0633H7.47026C6.74616 43.0633 6.07152 43.4528 5.70953 44.0799L5.56832 44.3244C4.41918 42.9241 3.49235 41.3353 2.84008 39.6124H3.13012C3.85422 39.6124 4.52887 39.2229 4.89086 38.5957L7.14214 34.6964C7.50413 34.0694 7.50413 33.2906 7.14214 32.6633L4.89086 28.7641C4.52875 28.1371 3.8541 27.7475 3.13012 27.7475H2.84008C3.49223 26.0247 4.4193 24.4357 5.56832 23.0355L5.70953 23.2799C6.07163 23.907 6.74628 24.2965 7.47026 24.2965H11.9727C12.6968 24.2965 13.3714 23.907 13.7334 23.2799L15.9846 19.3807C16.3466 18.7538 16.3467 17.9749 15.9847 17.3475L15.8393 17.0957C16.7265 16.9504 17.6364 16.8736 18.564 16.8736C19.4917 16.8736 20.4016 16.9504 21.2887 17.0957L21.1433 17.3475C20.7812 17.9746 20.7812 18.7537 21.1433 19.3807L23.3945 23.2799C23.7566 23.907 24.4312 24.2965 25.1552 24.2965H29.6576C30.3817 24.2965 31.0564 23.907 31.4184 23.2799L31.5596 23.0353C32.7087 24.4357 33.6357 26.0245 34.2878 27.7475H33.9978C33.2737 27.7475 32.599 28.1371 32.2372 28.7641L29.9859 32.6633C29.6238 33.2905 29.6238 34.0696 29.9859 34.6965L32.237 38.5955C32.599 39.2227 33.2737 39.6124 33.9978 39.6124H34.2878C33.6357 41.3353 32.7086 42.9241 31.5596 44.3245L31.4184 44.0799C31.0563 43.4528 30.3816 43.0633 29.6576 43.0633H25.1552C24.4312 43.0633 23.7566 43.4527 23.3945 44.0799L21.1433 47.9792C20.7812 48.6063 20.7812 49.3852 21.1433 50.0124L21.2886 50.2641C20.4015 50.4094 19.4915 50.4862 18.5639 50.4862C17.6362 50.4862 16.7266 50.4093 15.8394 50.2641ZM23.0892 49.8666L22.6658 49.1334C22.6168 49.0484 22.6167 48.9429 22.6657 48.8581L22.6658 48.858L24.9168 44.9588C24.9659 44.8737 25.0573 44.821 25.1554 44.821H29.6579C29.756 44.821 29.8474 44.8737 29.8963 44.9587L30.3145 45.6829C28.2808 47.6743 25.7998 49.108 23.0892 49.8666ZM34.5883 24.3C35.0984 22.7292 35.3941 21.1007 35.4714 19.443H40.557V35.3456C39.3828 35.285 38.2233 35.1053 37.0942 34.8042C37.3067 31.2354 36.5194 27.5837 34.5883 24.3Z" fill="#82191C"/>
<path d="M22.5761 38.5957L24.8274 34.6964C25.1894 34.0694 25.1894 33.2906 24.8275 32.6634L24.8274 32.6633L22.5761 28.7641C22.214 28.1371 21.5394 27.7475 20.8154 27.7475H16.3129C15.5888 27.7475 14.9142 28.1371 14.5522 28.7641L12.3008 32.6634C11.9389 33.2906 11.9389 34.0694 12.3009 34.6965L14.5522 38.5957C14.9143 39.2228 15.589 39.6124 16.3129 39.6124H20.8154C21.5395 39.6123 22.2141 39.2227 22.5761 38.5957ZM20.8154 37.8544H16.3129C16.2149 37.8544 16.1236 37.8017 16.0745 37.7166L13.8232 33.8176C13.7742 33.7325 13.7742 33.627 13.8232 33.5421L16.0745 29.6429C16.1235 29.558 16.2149 29.5052 16.3129 29.5052H20.8154C20.9135 29.5052 21.0049 29.558 21.0539 29.6429L23.305 33.542C23.3541 33.627 23.3541 33.7325 23.3051 33.8175L21.0539 37.7166C21.0048 37.8017 20.9135 37.8544 20.8154 37.8544Z" fill="#82191C"/>
</g>
<defs>
<clipPath id="clip0_88_153">
<rect width="60" height="60" fill="white"/>
</clipPath>
</defs>
</svg>
